<?xml version="1.0" encoding="utf-8" ?>
<svg baseProfile="full" height="200mm" version="1.1" viewBox="0,0,200,200" width="200mm" xmlns="http://www.w3.org/2000/svg" xmlns:ev="http://www.w3.org/2001/xml-events" xmlns:xlink="http://www.w3.org/1999/xlink"><defs /><rect fill="#1a1a1a" height="200" width="200" x="0" y="0" /><text alignment-baseline="middle" fill="#e1ed5e" style="dominant-baseline: central; font-size:9.0px; font-family:Arial;" text-anchor="middle" x="100.0" y="100.0">2024</text><line stroke="#e1ed5e" stroke-width="0.3" x1="100.0" x2="100.0" y1="15.0" y2="10.0" /><path d="M 100.0 14.0 a86.0,86.0 0 0,1 42.35913384403234,11.155469271406648" fill="none" id="id37" stroke="none" /><text fill="#e1ed5e" style="font-size:6.75px; font-family:Arial;" text-anchor="middle"><textPath startOffset="22.145653131862478" xlink:href="#id37">January</textPath></text><line stroke="#e1ed5e" stroke-width="0.3" x1="143.13028292997686" x2="145.6673583964461" y1="26.7553504044142" y2="22.446841604673864" /><path d="M 143.63769802327073 25.89364864446614 a86.0,86.0 0 0,1 29.32050498858742,28.57503671076993" fill="none" id="id38" stroke="none" /><text fill="#e1ed5e" style="font-size:6.75px; font-family:Arial;" text-anchor="middle"><textPath startOffset="20.669276256404974" xlink:href="#id38">February</textPath></text><line stroke="#e1ed5e" stroke-width="0.3" x1="172.87174338648825" x2="177.1583165268699" y1="56.24261187166439" y2="53.66864786411523" /><path d="M 173.72905801456457 55.72781907015455 a86.0,86.0 0 0,1 12.242430191666344,42.057860355516425" fill="none" id="id39" stroke="none" /><text fill="#e1ed5e" style="font-size:6.75px; font-family:Arial;" text-anchor="middle"><textPath startOffset="22.145653131862474" xlink:href="#id39">March</textPath></text><path d="M 119.16976305983485 91.42560881287824 l 33.652882234859995 -15.052506176271743 a57.865897858319606,57.865897858319606 0 0,0 0.3978035732099101,0.9102524251942576 l -33.906319690086875 14.472591681301635" fill="#c9ff1d" stroke="none" /><path d="M 119.58574465831526 92.42381321644754 l 58.75723397494581 -22.728560350657357 a84.0,84.0 0 0,0 0.5086772647422375,1.349326879223369 l -59.13874192350249 21.71656519123983" fill="#4dd2ff" stroke="none" /><path d="M 120.26092885502905 94.47779374421319 l 58.07910413138476 -15.829718097313101 a81.1976935749588,81.1976935749588 0 0,0 0.3549905906940659,1.3479570942949615 l -58.342284202883555 14.83038049864534" fill="#48f8ff" stroke="none" /><path d="M 120.35273937422433 94.82641323984039 l 57.960041651209494 -14.733215936757665 a80.80329489291597,80.80329489291597 0 0,0 0.3301871714473645,1.3472763361537619 l -58.20441634917315 13.736083775995807" fill="#47feff" stroke="none" /><path d="M 120.65975698304385 96.23510406497455 l 58.52803642181581 -10.665757907528446 a80.49192751235586,80.49192751235586 0 0,0 0.23605285934525147,1.3614901640971155 l -58.7025040986533 9.659474710510738" fill="#47fffc" stroke="none" /><path d="M 120.77682067341334 96.94652285012252 l 61.71434542695925 -9.069883527560307 a83.37726523887974,83.37726523887974 0 0,0 0.1959583444842468,1.4178569641479304 l -61.86094828799871 8.00913825521229" fill="#4cdaff" stroke="none" /><path d="M 120.93736805541906 98.37931529534042 l 59.23171074920199 -4.584909019508114 a80.40889621087314,80.40889621087314 0 0,0 0.09471417044506326,1.3771232513681986 l -59.301688880812115 3.5674423439855816" fill="#46fffb" stroke="none" /><path d="M 120.96210409425399 98.7389718711861 l 49.148709303035076 -2.956664304658911 a70.23756177924218,70.23756177924218 0 0,0 0.06207130986040555,1.204166828808174 l -49.192222202352056 2.1125256824740064" fill="#34ff5b" stroke="none" /><path d="M 120.98066250479742 99.09900007780936 l 41.80924112982366 -1.7954687082072494 a62.84777594728171,62.84777594728171 0 0,0 0.037036233280931925,1.0782695218992087 l -41.833902050101436 1.0774929217439206" fill="#78ff26" stroke="none" /><line stroke="#e1ed5e" stroke-width="0.3" x1="184.99686870605535" x2="189.99668451229388" y1="99.2704041080226" y2="99.22748670261217" /><path d="M 185.99683186730306 99.26182062694052 a86.0,86.0 0 0,1 -10.086455211305974,41.156179273409016" fill="none" id="id40" stroke="none" /><text fill="#e1ed5e" style="font-size:6.75px; font-family:Arial;" text-anchor="middle"><textPath startOffset="21.40746469413373" xlink:href="#id40">April</textPath></text><path d="M 120.82617615685814 102.69636545807757 l 51.65028926941389 6.687164020741314 a73.08138385502471,73.08138385502471 0 0,0 -0.17176033480852382,1.2427722203593745 l -51.52788441805016 -7.5728245493007735" fill="#39ff8b" stroke="none" /><path d="M 120.65975698304385 103.76489593502545 l 60.815245102640425 11.082563520104566 a82.8168039538715,82.8168039538715 0 0,0 -0.2668819135666676,1.3964389453430834 l -60.6160368967916 -12.124905030480965" fill="#4be2ff" stroke="none" /><path d="M 120.592083275326 104.11899336999214 l 20.639577371842407 4.128493519445164 a42.04843492586491,42.04843492586491 0 0,0 -0.14765465941362013,0.7065809968825598 l -20.565665001604422 -4.482190967613133" fill="#ff0601" stroke="none" /><path d="M 120.51834098615036 104.47187691870673 l 61.16967026118238 13.331644929310857 a83.60560131795717,83.60560131795717 0 0,0 -0.31765804276729653,1.399659948275077 l -60.93180135685742 -14.379739211524951" fill="#4cd7ff" stroke="none" /><path d="M 120.43855184770803 104.8234425847677 l 60.79038139349601 14.346364485238254 a83.46029654036244,83.46029654036244 0 0,0 -0.34104449922913976,1.3915779385756515 l -60.53514936775058 -15.387798248422005" fill="#4cd9ff" stroke="none" /><path d="M 119.4528033332814 107.91128576633889 l 19.59381212185872 7.968632813080054 a42.15222405271828,42.15222405271828 0 0,0 -0.2783535272104547,0.6679471342615273 l -19.45413275011178 -8.30381245678286" fill="#ff0801" stroke="none" /><line stroke="#e1ed5e" stroke-width="0.3" x1="174.33088141563837" x2="178.70328620479359" y1="141.23008692659167" y2="143.65538615756765" /><path d="M 175.20536237346943 141.71514677278685 a86.0,86.0 0 0,1 -30.301960400862466,31.631185727798858" fill="none" id="id41" stroke="none" /><text fill="#e1ed5e" style="font-size:6.75px; font-family:Arial;" text-anchor="middle"><textPath startOffset="22.145653131862474" xlink:href="#id41">May</textPath></text><path d="M 117.62189284568427 111.42229804090321 l 17.80188582038484 11.538967312490698 a42.214497528830314,42.214497528830314 0 0,0 -0.39938042772475996,0.6047128705941973 l -17.60118095373935 -11.842860061423956" fill="#ff0a01" stroke="none" /><path d="M 117.21940702142032 112.02048342749411 l 28.016287272413027 19.557544370664225 a55.1673805601318,55.1673805601318 0 0,0 -0.5487444215553949,0.7718777500642915 l -27.676427752327672 -20.035599347438023" fill="#f7ff18" stroke="none" /><path d="M 116.79662413953412 112.60449989151573 l 27.72688202275647 20.806769178416413 a55.66556836902801,55.66556836902801 0 0,0 -0.5801095031909789,0.7593819614422215 l -27.365620542211186 -21.27967205309951" fill="#efff19" stroke="none" /><path d="M 116.35404254752997 113.17365903436017 l 16.55341637759871 13.334260478930625 a42.25601317957167,42.25601317957167 0 0,0 -0.4598926770707419,0.5609942885229997 l -16.32207688128934 -13.616457049152118" fill="#ff0b01" stroke="none" /><path d="M 115.6541949942343 113.99807769240083 l 15.473668857562734 13.83665010780971 a41.75782537067545,41.75782537067545 0 0,0 -0.4824068782271021,0.5302496644182704 l -15.233864278493751 -14.100237347785653" fill="#ff0000" stroke="none" /><path d="M 115.41159269507618 114.26474011684316 l 15.46237224267116 14.31174090800244 a42.06919275123558,42.06919275123558 0 0,0 -0.4951026460901283,0.525781852895373 l -15.214413762844773 -14.575064220842311" fill="#ff0701" stroke="none" /><path d="M 114.13192950727249 115.5334660781643 l 14.206430618348724 15.6153558499108 a42.110708401976936,42.110708401976936 0 0,0 -0.5388866710882775,0.4818757842272511 l -13.936278920437069 -15.856927164021439" fill="#ff0801" stroke="none" /><path d="M 113.03279911837588 116.46651593811092 l 13.011328279630607 16.439388234753242 a41.965403624382205,41.965403624382205 0 0,0 -0.5687112638508487,0.44223331858974935 l -12.727207071144528 -16.660322604963785" fill="#ff0400" stroke="none" /><line stroke="#e1ed5e" stroke-width="0.3" x1="143.1302829299769" x2="145.66735839644613" y1="173.24464959558577" y2="177.55315839532614" /><path d="M 143.63769802327073 174.10635135553383 a86.0,86.0 0 0,1 -40.68552437913181,11.842963189579606" fill="none" id="id42" stroke="none" /><text fill="#e1ed5e" style="font-size:6.75px; font-family:Arial;" text-anchor="middle"><textPath startOffset="21.407464694133747" xlink:href="#id42">June</textPath></text><line stroke="#e1ed5e" stroke-width="0.3" x1="101.45913802915013" x2="101.54496967792366" y1="184.9874750549273" y2="189.98673829345242" /><path d="M 101.47630435890484 185.9873277026323 a86.0,86.0 0 0,1 -42.54439059252881,-10.42667462771756" fill="none" id="id43" stroke="none" /><text fill="#e1ed5e" style="font-size:6.75px; font-family:Arial;" text-anchor="middle"><textPath startOffset="22.145653131862474" xlink:href="#id43">July</textPath></text><line stroke="#e1ed5e" stroke-width="0.3" x1="58.13341422392154" x2="55.67067388415222" y1="173.97424548756322" y2="178.32567169271397" /><path d="M 57.64086615596768 174.84453072859336 a86.0,86.0 0 0,1 -31.369924170532247,-30.572349798747897" fill="none" id="id44" stroke="none" /><text fill="#e1ed5e" style="font-size:6.75px; font-family:Arial;" text-anchor="middle"><textPath startOffset="22.145653131862474" xlink:href="#id44">August</textPath></text><line stroke="#e1ed5e" stroke-width="0.3" x1="26.387840678322732" x2="22.057713659400548" y1="142.50000000000003" y2="145.00000000000006" /><path d="M 25.521815274538298 143.00000000000003 a86.0,86.0 0 0,1 -11.493303480769221,-40.785679425670985" fill="none" id="id45" stroke="none" /><text fill="#e1ed5e" style="font-size:6.75px; font-family:Arial;" text-anchor="middle"><textPath startOffset="21.40746469413373" xlink:href="#id45">September</textPath></text><line stroke="#e1ed5e" stroke-width="0.3" x1="15.003131293944662" x2="10.003315487706104" y1="100.72959589197737" y2="100.7725132973878" /><path d="M 14.003168132696942 100.73817937305945 a86.0,86.0 0 0,1 10.791469493833604,-42.45332614584628" fill="none" id="id46" stroke="none" /><text fill="#e1ed5e" style="font-size:6.75px; font-family:Arial;" text-anchor="middle"><textPath startOffset="22.145653131862435" xlink:href="#id46">October</textPath></text><line stroke="#e1ed5e" stroke-width="0.3" x1="26.387840678322718" x2="22.05771365940052" y1="57.49999999999999" y2="54.99999999999999" /><path d="M 25.521815274538284 56.99999999999999 a86.0,86.0 0 0,1 29.574782752854787,-30.34633250058573" fill="none" id="id47" stroke="none" /><text fill="#e1ed5e" style="font-size:6.75px; font-family:Arial;" text-anchor="middle"><textPath startOffset="21.40746469413373" xlink:href="#id47">November</textPath></text><line stroke="#e1ed5e" stroke-width="0.3" x1="56.869717070023135" x2="54.33264160355391" y1="26.7553504044142" y2="22.446841604673864" /><path d="M 56.362301976729285 25.89364864446614 a86.0,86.0 0 0,1 42.16139366436587,-11.88097634709845" fill="none" id="id48" stroke="none" /><text fill="#e1ed5e" style="font-size:6.75px; font-family:Arial;" text-anchor="middle"><textPath startOffset="22.145653131862474" xlink:href="#id48">December</textPath></text></svg>